{
  "accessors": [
    {
      "bufferView": 2,
      "componentType": 5126,
      "count": 65533,
      "max": [
        186.90550231933594,
        319.8990478515625,
        256.0069580078125
      ],
      "min": [
        -210.56399536132812,
        -214.31796264648438,
        -211.93585205078125
      ],
      "type": "VEC3"
    },
    {
      "bufferView": 2,
      "byteOffset": 786396,
      "componentType": 5126,
      "count": 65533,
      "max": [
        0.99998778104782104,
        0.99989324808120728,
        0.99997186660766602
      ],
      "min": [
        -0.99997657537460327,
        -0.99962449073791504,
        -0.99999231100082397
      ],
      "type": "VEC3"
    },
    {
      "bufferView": 1,
      "componentType": 5126,
      "count": 65533,
      "max": [
        0.93542051315307617,
        0.96632200479507446
      ],
      "min": [
        0.069623909890651703,
        0.014999986626207829
      ],
      "type": "VEC2"
    },
    {
      "bufferView": 0,
      "componentType": 5125,
      "count": 204759,
      "max": [
        65532
      ],
      "min": [
        0
      ],
      "type": "SCALAR"
    },
    {
      "bufferView": 2,
      "byteOffset": 1572792,
      "componentType": 5126,
      "count": 65532,
      "max": [
        241.67103576660156,
        115.74211120605469,
        260.77853393554688
      ],
      "min": [
        -214.93954467773438,
        -131.70382690429688,
        -239.36131286621094
      ],
      "type": "VEC3"
    },
    {
      "bufferView": 2,
      "byteOffset": 2359176,
      "componentType": 5126,
      "count": 65532,
      "max": [
        0.99998164176940918,
        0.99999767541885376,
        0.9998936653137207
      ],
      "min": [
        -0.99997669458389282,
        -0.99999475479125977,
        -0.99960607290267944
      ],
      "type": "VEC3"
    },
    {
      "bufferView": 1,
      "byteOffset": 524264,
      "componentType": 5126,
      "count": 65532,
      "max": [
        0.93542051315307617,
        0.96632200479507446
      ],
      "min": [
        0.069623909890651703,
        0.014999986626207829
      ],
      "type": "VEC2"
    },
    {
      "bufferView": 0,
      "byteOffset": 819036,
      "componentType": 5125,
      "count": 204678,
      "max": [
        65531
      ],
      "min": [
        0
      ],
      "type": "SCALAR"
    },
    {
      "bufferView": 2,
      "byteOffset": 3145560,
      "componentType": 5126,
      "count": 39290,
      "max": [
        233.26907348632812,
        125.777099609375,
        215.94692993164062
      ],
      "min": [
        -235.59022521972656,
        -126.07483673095703,
        -210.02346801757812
      ],
      "type": "VEC3"
    },
    {
      "bufferView": 2,
      "byteOffset": 3617040,
      "componentType": 5126,
      "count": 39290,
      "max": [
        0.99958181381225586,
        0.99999862909317017,
        0.9999353289604187
      ],
      "min": [
        -0.99974912405014038,
        -0.99999082088470459,
        -0.99922436475753784
      ],
      "type": "VEC3"
    },
    {
      "bufferView": 1,
      "byteOffset": 1048520,
      "componentType": 5126,
      "count": 39290,
      "max": [
        0.93542051315307617,
        0.96632200479507446
      ],
      "min": [
        0.069623909890651703,
        0.014999986626207829
      ],
      "type": "VEC2"
    },
    {
      "bufferView": 0,
      "byteOffset": 1637748,
      "componentType": 5125,
      "count": 122133,
      "max": [
        39289
      ],
      "min": [
        0
      ],
      "type": "SCALAR"
    },
    {
      "bufferView": 2,
      "byteOffset": 4088520,
      "componentType": 5126,
      "count": 455,
      "max": [
        37.555713653564453,
        43.039321899414062,
        30.987442016601562
      ],
      "min": [
        -30.811592102050781,
        -1245,
        -34.767082214355469
      ],
      "type": "VEC3"
    },
    {
      "bufferView": 2,
      "byteOffset": 4093980,
      "componentType": 5126,
      "count": 455,
      "max": [
        0.99997538328170776,
        0.26081666350364685,
        0.9999966025352478
      ],
      "min": [
        -0.99999439716339111,
        -0.56422674655914307,
        -0.99999880790710449
      ],
      "type": "VEC3"
    },
    {
      "bufferView": 3,
      "componentType": 5126,
      "count": 455,
      "max": [
        1,
        0.11806401610374451,
        0.9999997615814209,
        1
      ],
      "min": [
        -1,
        -0.11806349456310272,
        -0.9999997615814209,
        1
      ],
      "type": "VEC4"
    },
    {
      "bufferView": 1,
      "byteOffset": 1362840,
      "componentType": 5126,
      "count": 455,
      "max": [
        0.99820894002914429,
        2.0544447898864746
      ],
      "min": [
        0.0017908738227561116,
        -1.9695930480957031
      ],
      "type": "VEC2"
    },
    {
      "bufferView": 1,
      "byteOffset": 1366480,
      "componentType": 5126,
      "count": 455,
      "max": [
        0.99820894002914429,
        2.0544447898864746
      ],
      "min": [
        0.0017908738227561116,
        -1.9695930480957031
      ],
      "type": "VEC2"
    },
    {
      "bufferView": 0,
      "byteOffset": 2126280,
      "componentType": 5125,
      "count": 2448,
      "max": [
        454
      ],
      "min": [
        0
      ],
      "type": "SCALAR"
    }
  ],
  "asset": {
    "extras": {
      "author": "Rodrigo Gelmi (https://sketchfab.com/rodrigogelmi)",
      "license": "CC-BY-4.0 (http://creativecommons.org/licenses/by/4.0/)",
      "source": "https://sketchfab.com/3d-models/coconut-tree-2b959f888db340259e0679839cd224e1",
      "title": "Coconut Tree"
    },
    "generator": "Sketchfab-8.80.0",
    "version": "2.0"
  },
  "bufferViews": [
    {
      "buffer": 0,
      "byteLength": 2136072,
      "byteOffset": 0,
      "name": "floatBufferViews",
      "target": 34963
    },
    {
      "buffer": 0,
      "byteLength": 1370120,
      "byteOffset": 2136072,
      "byteStride": 8,
      "name": "floatBufferViews",
      "target": 34962
    },
    {
      "buffer": 0,
      "byteLength": 4099440,
      "byteOffset": 3506192,
      "byteStride": 12,
      "name": "floatBufferViews",
      "target": 34962
    },
    {
      "buffer": 0,
      "byteLength": 7280,
      "byteOffset": 7605632,
      "byteStride": 16,
      "name": "floatBufferViews",
      "target": 34962
    }
  ],
  "buffers": [
    {
      "byteLength": 7612912,
      "uri": "scene.bin"
    }
  ],
  "images": [
    {
      "uri": "textures/Cononute_tree-Leafs_baseColor.jpeg"
    },
    {
      "uri": "textures/Coconut_tree-Trunk_baseColor.jpeg"
    },
    {
      "uri": "textures/Coconut_tree-Trunk_normal.png"
    }
  ],
  "materials": [
    {
      "doubleSided": true,
      "emissiveFactor": [
        0,
        0,
        0
      ],
      "name": "Cononute_tree-Leafs",
      "pbrMetallicRoughness": {
        "baseColorFactor": [
          1,
          1,
          1,
          1
        ],
        "baseColorTexture": {
          "index": 0,
          "texCoord": 0
        },
        "metallicFactor": 0.3969213043,
        "roughnessFactor": 0.27474934490000003
      }
    },
    {
      "doubleSided": true,
      "emissiveFactor": [
        0,
        0,
        0
      ],
      "name": "Coconut_tree-Trunk",
      "normalTexture": {
        "index": 2,
        "scale": 1,
        "texCoord": 0
      },
      "pbrMetallicRoughness": {
        "baseColorFactor": [
          0.71309030881199498,
          0.71309030881199498,
          0.71309030881199498,
          1
        ],
        "baseColorTexture": {
          "index": 1,
          "texCoord": 0
        },
        "metallicFactor": 0,
        "roughnessFactor": 1
      }
    }
  ],
  "meshes": [
    {
      "name": "Coconut-tree_Cononute_tree-Leafs_0",
      "primitives": [
        {
          "attributes": {
            "NORMAL": 1,
            "POSITION": 0,
            "TEXCOORD_0": 2
          },
          "indices": 3,
          "material": 0,
          "mode": 4
        }
      ]
    },
    {
      "name": "Coconut-tree_Cononute_tree-Leafs_0",
      "primitives": [
        {
          "attributes": {
            "NORMAL": 5,
            "POSITION": 4,
            "TEXCOORD_0": 6
          },
          "indices": 7,
          "material": 0,
          "mode": 4
        }
      ]
    },
    {
      "name": "Coconut-tree_Cononute_tree-Leafs_0",
      "primitives": [
        {
          "attributes": {
            "NORMAL": 9,
            "POSITION": 8,
            "TEXCOORD_0": 10
          },
          "indices": 11,
          "material": 0,
          "mode": 4
        }
      ]
    },
    {
      "name": "Coconut-tree_Coconut_tree-Trunk_0",
      "primitives": [
        {
          "attributes": {
            "NORMAL": 13,
            "POSITION": 12,
            "TANGENT": 14,
            "TEXCOORD_0": 15,
            "TEXCOORD_1": 16
          },
          "indices": 17,
          "material": 1,
          "mode": 4
        }
      ]
    }
  ],
  "nodes": [
    {
      "children": [
        1
      ],
      "name": "RootNode (gltf orientation matrix)",
      "rotation": [
        -0.70710678118654746,
        -0,
        -0,
        0.70710678118654757
      ]
    },
    {
      "children": [
        2
      ],
      "name": "RootNode (model correction matrix)"
    },
    {
      "children": [
        3
      ],
      "matrix": [
        1,
        0,
        0,
        0,
        0,
        0,
        1,
        0,
        0,
        -1,
        0,
        0,
        0,
        0,
        0,
        1
      ],
      "name": "8da83dbbff734e0c83d2519cca3c0851.fbx"
    },
    {
      "children": [
        4,
        9,
        11
      ],
      "name": "RootNode"
    },
    {
      "children": [
        5,
        6,
        7,
        8
      ],
      "matrix": [
        1,
        0,
        0,
        0,
        0,
        1,
        0,
        0,
        0,
        0,
        1,
        0,
        0,
        1245,
        0,
        1
      ],
      "name": "Coconut-tree"
    },
    {
      "mesh": 0,
      "name": "Coconut-tree_Cononute_tree-Leafs_0"
    },
    {
      "mesh": 1,
      "name": "Coconut-tree_Cononute_tree-Leafs_0"
    },
    {
      "mesh": 2,
      "name": "Coconut-tree_Cononute_tree-Leafs_0"
    },
    {
      "mesh": 3,
      "name": "Coconut-tree_Coconut_tree-Trunk_0"
    },
    {
      "children": [
        10
      ],
      "matrix": [
        -0.91447496439992726,
        -0.072577407640948124,
        0.398080468480773,
        0,
        -0.065943274347783645,
        0.99736164666730653,
        0.030351776313285478,
        0,
        -0.39923304479219274,
        0.0015052100180444339,
        -0.9168482482334559,
        0,
        3537.85107421875,
        1048.9034423828125,
        -1537.69677734375,
        1
      ],
      "name": "Camera"
    },
    {
      "name": ""
    },
    {
      "children": [
        12
      ],
      "matrix": [
        -0.99474585944517635,
        -0.0063783577230245789,
        0.10217627742991504,
        0,
        -0.094130749393030733,
        0.44938505381175842,
        -0.88836505752382522,
        0,
        -0.040250181805605259,
        -0.89331539221226908,
        -0.44762432116815964,
        0,
        -514.909912109375,
        3255.171875,
        -4877.482421875,
        1
      ],
      "name": "Directional Light"
    },
    {
      "children": [
        13
      ],
      "matrix": [
        1,
        0,
        0,
        0,
        0,
        2.2204460492503131e-16,
        1,
        0,
        0,
        -1,
        2.2204460492503131e-16,
        0,
        0,
        0,
        0,
        1
      ],
      "name": ""
    },
    {
      "name": ""
    }
  ],
  "samplers": [
    {
      "magFilter": 9729,
      "minFilter": 9987,
      "wrapS": 10497,
      "wrapT": 10497
    }
  ],
  "scene": 0,
  "scenes": [
    {
      "name": "OSG_Scene",
      "nodes": [
        0
      ]
    }
  ],
  "textures": [
    {
      "sampler": 0,
      "source": 0
    },
    {
      "sampler": 0,
      "source": 1
    },
    {
      "sampler": 0,
      "source": 2
    }
  ]
}

